<svg width="2562" height="613" viewBox="0 0 2562 613" fill="none" xmlns="http://www.w3.org/2000/svg">
<path d="M1159.19 492.743C1365.88 469.832 1565.88 442.359 1754.3 410.845C2110.6 348.463 2363.74 290.359 2561 229.654V1C2496.36 119.249 2247.51 248.002 1824.03 341.922C1817.1 343.485 1809.76 344.946 1803.09 346.593C1331.46 464.338 667.485 532.66 1 533.526V555C399.136 554.26 796.646 533.52 1159.19 492.743Z" fill="#428EFF" stroke="#202124" stroke-width="2" stroke-linecap="round" stroke-linejoin="round"/>
<path d="M1486.65 493.031C1491.75 492.47 1496.87 491.892 1501.99 491.313C1907.33 445.737 2260.15 386.793 2561 320.486V229C2363.72 289.856 2110.59 348.106 1754.28 410.633C1565.87 442.223 1365.86 469.769 1159.19 492.729C796.629 533.606 399.135 554.391 1 555.138V573C510.762 572.246 1019.94 545.604 1486.67 493.031H1486.65Z" fill="#FF5145" stroke="#202124" stroke-width="2" stroke-linecap="round" stroke-linejoin="round"/>
<path d="M1486.67 492.747C1019.93 545.085 510.76 571.605 1 572.355V592C888.347 590.999 1774.85 529.908 2561 408.724V321C2260.15 387.003 1907.34 445.676 1502 491.044C1496.88 491.619 1491.77 492.195 1486.65 492.753L1486.67 492.747Z" fill="#38A852" stroke="#202124" stroke-width="2" stroke-linecap="round" stroke-linejoin="round"/>
<path d="M1 612C526.506 611.58 1052.01 596.142 1577.12 565.666C1582.88 565.324 1588.61 564.989 1594.37 564.647C1932.26 544.538 2255.18 517.058 2561 483.558V409C1774.85 530.258 888.347 591.388 1 592.39V612Z" fill="#FFBB01" stroke="#202124" stroke-width="2" stroke-linecap="round" stroke-linejoin="round"/>
<path d="M87.008 348.024C82.6133 348.024 78.56 347 74.848 344.952C71.1787 342.861 68.256 340.003 66.08 336.376C63.904 332.707 62.816 328.611 62.816 324.088C62.816 319.565 63.904 315.491 66.08 311.864C68.256 308.195 71.1787 305.336 74.848 303.288C78.56 301.197 82.6133 300.152 87.008 300.152C90.592 300.152 93.856 300.792 96.8 302.072C99.7867 303.309 102.325 305.08 104.416 307.384L98.464 313.208C96.928 311.587 95.2213 310.371 93.344 309.56C91.5093 308.749 89.3547 308.344 86.88 308.344C84.1067 308.344 81.5253 309.005 79.136 310.328C76.7893 311.651 74.912 313.507 73.504 315.896C72.1387 318.285 71.456 321.016 71.456 324.088C71.456 327.16 72.16 329.891 73.568 332.28C74.976 334.669 76.8533 336.525 79.2 337.848C81.5893 339.171 84.192 339.832 87.008 339.832C91.232 339.832 94.752 338.573 97.568 336.056C98.4213 335.245 99.1467 334.264 99.744 333.112C100.384 331.917 100.853 330.616 101.152 329.208H86.816V321.848H109.28C109.579 323.043 109.728 324.387 109.728 325.88C109.728 328.909 109.259 331.725 108.32 334.328C107.424 336.931 106.037 339.213 104.16 341.176C102.069 343.395 99.5733 345.101 96.672 346.296C93.8133 347.448 90.592 348.024 87.008 348.024ZM131.385 348.024C128.142 348.024 125.241 347.299 122.681 345.848C120.121 344.397 118.115 342.392 116.665 339.832C115.214 337.229 114.489 334.328 114.489 331.128C114.489 327.885 115.214 324.984 116.665 322.424C118.115 319.864 120.121 317.859 122.681 316.408C125.241 314.957 128.142 314.232 131.385 314.232C134.585 314.232 137.465 314.957 140.025 316.408C142.585 317.859 144.59 319.885 146.041 322.488C147.491 325.048 148.217 327.928 148.217 331.128C148.217 334.328 147.491 337.229 146.041 339.832C144.59 342.392 142.585 344.397 140.025 345.848C137.465 347.299 134.585 348.024 131.385 348.024ZM131.385 340.28C132.878 340.28 134.265 339.917 135.545 339.192C136.867 338.424 137.913 337.357 138.681 335.992C139.449 334.584 139.833 332.963 139.833 331.128C139.833 329.293 139.449 327.693 138.681 326.328C137.913 324.92 136.867 323.853 135.545 323.128C134.265 322.36 132.878 321.976 131.385 321.976C129.849 321.976 128.419 322.36 127.097 323.128C125.817 323.853 124.793 324.92 124.025 326.328C123.257 327.693 122.873 329.293 122.873 331.128C122.873 332.963 123.257 334.584 124.025 335.992C124.793 337.357 125.817 338.424 127.097 339.192C128.419 339.917 129.849 340.28 131.385 340.28ZM169.447 348.024C166.204 348.024 163.303 347.299 160.743 345.848C158.183 344.397 156.178 342.392 154.727 339.832C153.276 337.229 152.551 334.328 152.551 331.128C152.551 327.885 153.276 324.984 154.727 322.424C156.178 319.864 158.183 317.859 160.743 316.408C163.303 314.957 166.204 314.232 169.447 314.232C172.647 314.232 175.527 314.957 178.087 316.408C180.647 317.859 182.652 319.885 184.103 322.488C185.554 325.048 186.279 327.928 186.279 331.128C186.279 334.328 185.554 337.229 184.103 339.832C182.652 342.392 180.647 344.397 178.087 345.848C175.527 347.299 172.647 348.024 169.447 348.024ZM169.447 340.28C170.94 340.28 172.327 339.917 173.607 339.192C174.93 338.424 175.975 337.357 176.743 335.992C177.511 334.584 177.895 332.963 177.895 331.128C177.895 329.293 177.511 327.693 176.743 326.328C175.975 324.92 174.93 323.853 173.607 323.128C172.327 322.36 170.94 321.976 169.447 321.976C167.911 321.976 166.482 322.36 165.159 323.128C163.879 323.853 162.855 324.92 162.087 326.328C161.319 327.693 160.935 329.293 160.935 331.128C160.935 332.963 161.319 334.584 162.087 335.992C162.855 337.357 163.879 338.424 165.159 339.192C166.482 339.917 167.911 340.28 169.447 340.28ZM207.062 361.848C204.288 361.848 201.814 361.379 199.638 360.44C197.462 359.544 195.691 358.371 194.326 356.92C192.96 355.512 192 353.997 191.446 352.376L199.446 349.176C200.043 350.797 201.024 352.077 202.39 353.016C203.755 353.955 205.312 354.424 207.062 354.424C209.664 354.424 211.734 353.592 213.27 351.928C214.848 350.264 215.638 347.981 215.638 345.08V342.776H215.126C214.102 344.184 212.779 345.293 211.158 346.104C209.536 346.872 207.659 347.256 205.526 347.256C202.966 347.256 200.534 346.573 198.23 345.208C195.968 343.8 194.134 341.859 192.726 339.384C191.318 336.867 190.614 333.987 190.614 330.744C190.614 327.501 191.318 324.621 192.726 322.104C194.134 319.587 195.968 317.645 198.23 316.28C200.534 314.915 202.966 314.232 205.526 314.232C207.659 314.232 209.536 314.616 211.158 315.384C212.822 316.152 214.144 317.24 215.126 318.648H215.638V315.256H223.638V344.76C223.638 348.216 222.934 351.224 221.526 353.784C220.16 356.387 218.219 358.371 215.702 359.736C213.227 361.144 210.347 361.848 207.062 361.848ZM207.318 339.64C208.768 339.64 210.112 339.299 211.35 338.616C212.63 337.891 213.654 336.867 214.422 335.544C215.232 334.179 215.638 332.579 215.638 330.744C215.638 328.867 215.254 327.267 214.486 325.944C213.718 324.579 212.694 323.555 211.414 322.872C210.134 322.189 208.768 321.848 207.318 321.848C205.867 321.848 204.502 322.211 203.222 322.936C201.984 323.619 200.96 324.643 200.15 326.008C199.382 327.331 198.998 328.909 198.998 330.744C198.998 332.579 199.382 334.179 200.15 335.544C200.96 336.867 201.984 337.891 203.222 338.616C204.502 339.299 205.867 339.64 207.318 339.64ZM231.593 301.176H239.977V347H231.593V301.176ZM262.569 348.024C259.369 348.024 256.489 347.299 253.929 345.848C251.412 344.397 249.428 342.392 247.977 339.832C246.526 337.229 245.801 334.328 245.801 331.128C245.801 328.099 246.505 325.304 247.913 322.744C249.364 320.141 251.326 318.072 253.801 316.536C256.318 315 259.134 314.232 262.249 314.232C265.577 314.232 268.414 314.957 270.761 316.408C273.15 317.816 274.964 319.757 276.201 322.232C277.438 324.707 278.057 327.523 278.057 330.68C278.057 331.235 278.036 331.747 277.993 332.216C277.95 332.728 277.929 333.005 277.929 333.048H254.057C254.398 335.48 255.38 337.357 257.001 338.68C258.665 339.96 260.564 340.6 262.697 340.6C266.196 340.6 268.841 339.064 270.633 335.992L277.545 339.384C276.009 342.115 273.982 344.248 271.465 345.784C268.948 347.277 265.982 348.024 262.569 348.024ZM269.993 327.096C269.908 326.2 269.545 325.283 268.905 324.344C268.308 323.405 267.433 322.637 266.281 322.04C265.172 321.4 263.828 321.08 262.249 321.08C260.414 321.08 258.793 321.635 257.385 322.744C255.977 323.811 254.996 325.261 254.441 327.096H269.993ZM65.056 382.176H80.544C85.3227 382.176 89.4827 383.136 93.024 385.056C96.5653 386.976 99.296 389.664 101.216 393.12C103.136 396.576 104.096 400.565 104.096 405.088C104.096 409.611 103.136 413.6 101.216 417.056C99.296 420.512 96.5653 423.2 93.024 425.12C89.4827 427.04 85.3227 428 80.544 428H65.056V382.176ZM80.16 419.808C85.1093 419.808 88.8853 418.507 91.488 415.904C94.1333 413.259 95.456 409.653 95.456 405.088C95.456 400.523 94.1333 396.939 91.488 394.336C88.8853 391.691 85.1093 390.368 80.16 390.368H73.696V419.808H80.16ZM124.944 429.024C121.744 429.024 118.864 428.299 116.304 426.848C113.787 425.397 111.803 423.392 110.352 420.832C108.901 418.229 108.176 415.328 108.176 412.128C108.176 409.099 108.88 406.304 110.288 403.744C111.739 401.141 113.701 399.072 116.176 397.536C118.693 396 121.509 395.232 124.624 395.232C127.952 395.232 130.789 395.957 133.136 397.408C135.525 398.816 137.339 400.757 138.576 403.232C139.813 405.707 140.432 408.523 140.432 411.68C140.432 412.235 140.411 412.747 140.368 413.216C140.325 413.728 140.304 414.005 140.304 414.048H116.432C116.773 416.48 117.755 418.357 119.376 419.68C121.04 420.96 122.939 421.6 125.072 421.6C128.571 421.6 131.216 420.064 133.008 416.992L139.92 420.384C138.384 423.115 136.357 425.248 133.84 426.784C131.323 428.277 128.357 429.024 124.944 429.024ZM132.368 408.096C132.283 407.2 131.92 406.283 131.28 405.344C130.683 404.405 129.808 403.637 128.656 403.04C127.547 402.4 126.203 402.08 124.624 402.08C122.789 402.08 121.168 402.635 119.76 403.744C118.352 404.811 117.371 406.261 116.816 408.096H132.368ZM142.384 396.256H151.92L159.856 416.608H160.304L168.368 396.256H177.84L164.208 428H155.888L142.384 396.256ZM196.257 429.024C193.057 429.024 190.177 428.299 187.617 426.848C185.099 425.397 183.115 423.392 181.665 420.832C180.214 418.229 179.489 415.328 179.489 412.128C179.489 409.099 180.193 406.304 181.601 403.744C183.051 401.141 185.014 399.072 187.489 397.536C190.006 396 192.822 395.232 195.937 395.232C199.265 395.232 202.102 395.957 204.449 397.408C206.838 398.816 208.651 400.757 209.889 403.232C211.126 405.707 211.745 408.523 211.745 411.68C211.745 412.235 211.723 412.747 211.681 413.216C211.638 413.728 211.617 414.005 211.617 414.048H187.745C188.086 416.48 189.067 418.357 190.689 419.68C192.353 420.96 194.251 421.6 196.385 421.6C199.883 421.6 202.529 420.064 204.321 416.992L211.233 420.384C209.697 423.115 207.67 425.248 205.153 426.784C202.635 428.277 199.67 429.024 196.257 429.024ZM203.681 408.096C203.595 407.2 203.233 406.283 202.593 405.344C201.995 404.405 201.121 403.637 199.969 403.04C198.859 402.4 197.515 402.08 195.937 402.08C194.102 402.08 192.481 402.635 191.073 403.744C189.665 404.811 188.683 406.261 188.129 408.096H203.681ZM217.906 382.176H226.29V428H217.906V382.176ZM249.01 429.024C245.767 429.024 242.866 428.299 240.306 426.848C237.746 425.397 235.74 423.392 234.29 420.832C232.839 418.229 232.114 415.328 232.114 412.128C232.114 408.885 232.839 405.984 234.29 403.424C235.74 400.864 237.746 398.859 240.306 397.408C242.866 395.957 245.767 395.232 249.01 395.232C252.21 395.232 255.09 395.957 257.65 397.408C260.21 398.859 262.215 400.885 263.666 403.488C265.116 406.048 265.842 408.928 265.842 412.128C265.842 415.328 265.116 418.229 263.666 420.832C262.215 423.392 260.21 425.397 257.65 426.848C255.09 428.299 252.21 429.024 249.01 429.024ZM249.01 421.28C250.503 421.28 251.89 420.917 253.17 420.192C254.492 419.424 255.538 418.357 256.306 416.992C257.074 415.584 257.458 413.963 257.458 412.128C257.458 410.293 257.074 408.693 256.306 407.328C255.538 405.92 254.492 404.853 253.17 404.128C251.89 403.36 250.503 402.976 249.01 402.976C247.474 402.976 246.044 403.36 244.722 404.128C243.442 404.853 242.418 405.92 241.65 407.328C240.882 408.693 240.498 410.293 240.498 412.128C240.498 413.963 240.882 415.584 241.65 416.992C242.418 418.357 243.442 419.424 244.722 420.192C246.044 420.917 247.474 421.28 249.01 421.28ZM271.4 396.256H279.272V400.032H279.784C280.594 398.667 281.832 397.536 283.496 396.64C285.202 395.701 287.186 395.232 289.448 395.232C292.221 395.232 294.76 395.957 297.064 397.408C299.41 398.859 301.266 400.864 302.632 403.424C303.997 405.984 304.68 408.885 304.68 412.128C304.68 415.371 303.997 418.272 302.632 420.832C301.266 423.392 299.41 425.397 297.064 426.848C294.76 428.299 292.221 429.024 289.448 429.024C287.186 429.024 285.202 428.576 283.496 427.68C281.832 426.741 280.594 425.568 279.784 424.16H279.272L279.784 428.704V441.824H271.4V396.256ZM287.784 421.28C289.277 421.28 290.685 420.896 292.008 420.128C293.33 419.36 294.376 418.293 295.144 416.928C295.954 415.52 296.36 413.92 296.36 412.128C296.36 410.293 295.954 408.693 295.144 407.328C294.376 405.92 293.33 404.853 292.008 404.128C290.685 403.36 289.277 402.976 287.784 402.976C286.29 402.976 284.882 403.36 283.56 404.128C282.28 404.853 281.234 405.92 280.424 407.328C279.656 408.693 279.272 410.293 279.272 412.128C279.272 413.963 279.656 415.584 280.424 416.992C281.234 418.357 282.28 419.424 283.56 420.192C284.882 420.917 286.29 421.28 287.784 421.28ZM325.819 429.024C322.619 429.024 319.739 428.299 317.179 426.848C314.662 425.397 312.678 423.392 311.227 420.832C309.776 418.229 309.051 415.328 309.051 412.128C309.051 409.099 309.755 406.304 311.163 403.744C312.614 401.141 314.576 399.072 317.051 397.536C319.568 396 322.384 395.232 325.499 395.232C328.827 395.232 331.664 395.957 334.011 397.408C336.4 398.816 338.214 400.757 339.451 403.232C340.688 405.707 341.307 408.523 341.307 411.68C341.307 412.235 341.286 412.747 341.243 413.216C341.2 413.728 341.179 414.005 341.179 414.048H317.307C317.648 416.48 318.63 418.357 320.251 419.68C321.915 420.96 323.814 421.6 325.947 421.6C329.446 421.6 332.091 420.064 333.883 416.992L340.795 420.384C339.259 423.115 337.232 425.248 334.715 426.784C332.198 428.277 329.232 429.024 325.819 429.024ZM333.243 408.096C333.158 407.2 332.795 406.283 332.155 405.344C331.558 404.405 330.683 403.637 329.531 403.04C328.422 402.4 327.078 402.08 325.499 402.08C323.664 402.08 322.043 402.635 320.635 403.744C319.227 404.811 318.246 406.261 317.691 408.096H333.243ZM347.468 396.256H355.34V400.608H355.852C356.62 399.072 357.836 397.813 359.5 396.832C361.207 395.808 363.02 395.296 364.94 395.296C366.391 395.296 367.713 395.531 368.908 396V404.384C367.073 403.616 365.303 403.232 363.596 403.232C361.249 403.232 359.372 404.107 357.964 405.856C356.556 407.563 355.852 409.739 355.852 412.384V428H347.468V396.256ZM402.007 429.024C397.996 429.024 394.455 427.893 391.383 425.632C388.311 423.371 386.156 420.171 384.919 416.032L393.047 412.832C393.687 415.264 394.775 417.205 396.311 418.656C397.847 420.107 399.767 420.832 402.071 420.832C403.991 420.832 405.633 420.363 406.999 419.424C408.364 418.443 409.047 417.099 409.047 415.392C409.047 413.685 408.385 412.299 407.063 411.232C405.783 410.123 403.479 408.949 400.151 407.712L397.335 406.688C394.391 405.664 391.873 404.107 389.783 402.016C387.692 399.883 386.647 397.216 386.647 394.016C386.647 391.627 387.265 389.451 388.503 387.488C389.74 385.525 391.489 383.989 393.751 382.88C396.012 381.728 398.572 381.152 401.431 381.152C405.569 381.152 408.833 382.133 411.223 384.096C413.612 386.016 415.255 388.277 416.151 390.88L408.535 394.08C408.065 392.672 407.233 391.499 406.039 390.56C404.887 389.579 403.393 389.088 401.559 389.088C399.681 389.088 398.124 389.536 396.887 390.432C395.692 391.285 395.095 392.416 395.095 393.824C395.095 395.189 395.671 396.363 396.823 397.344C397.975 398.283 399.873 399.2 402.519 400.096L405.399 401.056C409.367 402.421 412.396 404.235 414.487 406.496C416.62 408.715 417.687 411.637 417.687 415.264C417.687 418.251 416.919 420.789 415.382 422.88C413.847 424.928 411.863 426.464 409.431 427.488C407.041 428.512 404.567 429.024 402.007 429.024ZM436.731 428.512C435.152 428.512 433.723 428.277 432.443 427.808C431.163 427.339 430.075 426.656 429.179 425.76C427.174 423.84 426.171 421.109 426.171 417.568V403.424H420.603V396.256H426.171V386.784H434.555V396.256H442.363V403.424H434.555V416.032C434.555 417.696 434.918 418.891 435.643 419.616C436.24 420.299 437.222 420.64 438.587 420.64C439.312 420.64 439.952 420.555 440.507 420.384C441.104 420.171 441.766 419.851 442.491 419.424V427.488C440.699 428.171 438.779 428.512 436.731 428.512ZM460.677 429.024C456.794 429.024 453.85 427.829 451.845 425.44C449.84 423.051 448.837 419.744 448.837 415.52V396.256H457.221V414.496C457.221 416.672 457.733 418.357 458.757 419.552C459.781 420.704 461.232 421.28 463.109 421.28C465.37 421.28 467.162 420.405 468.485 418.656C469.808 416.907 470.469 414.688 470.469 412V396.256H478.853V428H470.981V423.904H470.469C469.445 425.483 468.08 426.741 466.373 427.68C464.666 428.576 462.768 429.024 460.677 429.024ZM499.972 429.024C497.199 429.024 494.639 428.299 492.292 426.848C489.988 425.397 488.132 423.392 486.724 420.832C485.359 418.272 484.676 415.371 484.676 412.128C484.676 408.885 485.359 405.984 486.724 403.424C488.132 400.864 489.988 398.859 492.292 397.408C494.639 395.957 497.199 395.232 499.972 395.232C502.191 395.232 504.132 395.68 505.796 396.576C507.503 397.472 508.783 398.624 509.636 400.032H510.148L509.636 395.552V382.176H517.956V428H510.148V424.16H509.636C508.783 425.568 507.503 426.741 505.796 427.68C504.132 428.576 502.191 429.024 499.972 429.024ZM501.572 421.28C503.065 421.28 504.473 420.917 505.796 420.192C507.119 419.424 508.164 418.357 508.932 416.992C509.743 415.584 510.148 413.963 510.148 412.128C510.148 410.293 509.743 408.693 508.932 407.328C508.164 405.92 507.119 404.853 505.796 404.128C504.473 403.36 503.065 402.976 501.572 402.976C500.079 402.976 498.671 403.36 497.348 404.128C496.068 404.853 495.023 405.92 494.212 407.328C493.444 408.693 493.06 410.293 493.06 412.128C493.06 413.92 493.444 415.52 494.212 416.928C495.023 418.293 496.068 419.36 497.348 420.128C498.671 420.896 500.079 421.28 501.572 421.28ZM540.569 429.024C537.369 429.024 534.489 428.299 531.929 426.848C529.412 425.397 527.428 423.392 525.977 420.832C524.526 418.229 523.801 415.328 523.801 412.128C523.801 409.099 524.505 406.304 525.913 403.744C527.364 401.141 529.326 399.072 531.801 397.536C534.318 396 537.134 395.232 540.249 395.232C543.577 395.232 546.414 395.957 548.761 397.408C551.15 398.816 552.964 400.757 554.201 403.232C555.438 405.707 556.057 408.523 556.057 411.68C556.057 412.235 556.036 412.747 555.993 413.216C555.95 413.728 555.929 414.005 555.929 414.048H532.057C532.398 416.48 533.38 418.357 535.001 419.68C536.665 420.96 538.564 421.6 540.697 421.6C544.196 421.6 546.841 420.064 548.633 416.992L555.545 420.384C554.009 423.115 551.982 425.248 549.465 426.784C546.948 428.277 543.982 429.024 540.569 429.024ZM547.993 408.096C547.908 407.2 547.545 406.283 546.905 405.344C546.308 404.405 545.433 403.637 544.281 403.04C543.172 402.4 541.828 402.08 540.249 402.08C538.414 402.08 536.793 402.635 535.385 403.744C533.977 404.811 532.996 406.261 532.441 408.096H547.993ZM562.218 396.256H570.09V400.352H570.602C571.583 398.773 572.927 397.536 574.634 396.64C576.341 395.701 578.261 395.232 580.394 395.232C584.277 395.232 587.221 396.427 589.226 398.816C591.231 401.205 592.234 404.469 592.234 408.608V428H583.85V409.632C583.85 407.456 583.317 405.813 582.25 404.704C581.226 403.552 579.775 402.976 577.898 402.976C575.637 402.976 573.845 403.851 572.522 405.6C571.242 407.349 570.602 409.568 570.602 412.256V428H562.218V396.256ZM612.169 428.512C610.59 428.512 609.161 428.277 607.881 427.808C606.601 427.339 605.513 426.656 604.617 425.76C602.611 423.84 601.609 421.109 601.609 417.568V403.424H596.041V396.256H601.609V386.784H609.993V396.256H617.801V403.424H609.993V416.032C609.993 417.696 610.355 418.891 611.081 419.616C611.678 420.299 612.659 420.64 614.025 420.64C614.75 420.64 615.39 420.555 615.945 420.384C616.542 420.171 617.203 419.851 617.929 419.424V427.488C616.137 428.171 614.217 428.512 612.169 428.512ZM660.879 429.024C656.441 429.024 652.388 427.979 648.719 425.888C645.049 423.755 642.148 420.875 640.015 417.248C637.924 413.579 636.879 409.525 636.879 405.088C636.879 400.651 637.924 396.619 640.015 392.992C642.148 389.323 645.049 386.443 648.719 384.352C652.388 382.219 656.441 381.152 660.879 381.152C667.791 381.152 673.508 383.648 678.031 388.64L671.951 394.528C668.921 391.072 665.252 389.344 660.943 389.344C658.084 389.344 655.481 390.005 653.135 391.328C650.788 392.608 648.932 394.443 647.567 396.832C646.201 399.221 645.519 401.973 645.519 405.088C645.519 408.203 646.201 410.955 647.567 413.344C648.932 415.733 650.788 417.589 653.135 418.912C655.481 420.192 658.084 420.832 660.943 420.832C665.721 420.832 669.732 418.827 672.975 414.816L679.183 420.64C676.879 423.371 674.191 425.461 671.119 426.912C668.047 428.32 664.633 429.024 660.879 429.024ZM685.156 382.176H693.54V428H685.156V382.176ZM713.052 429.024C709.169 429.024 706.225 427.829 704.22 425.44C702.215 423.051 701.212 419.744 701.212 415.52V396.256H709.596V414.496C709.596 416.672 710.108 418.357 711.132 419.552C712.156 420.704 713.607 421.28 715.484 421.28C717.745 421.28 719.537 420.405 720.86 418.656C722.183 416.907 722.844 414.688 722.844 412V396.256H731.228V428H723.356V423.904H722.844C721.82 425.483 720.455 426.741 718.748 427.68C717.041 428.576 715.143 429.024 713.052 429.024ZM757.204 429.024C754.942 429.024 752.958 428.576 751.252 427.68C749.588 426.741 748.35 425.568 747.54 424.16H747.028V428H739.156V382.176H747.54V395.552L747.028 400.032H747.54C748.35 398.667 749.588 397.536 751.252 396.64C752.958 395.701 754.942 395.232 757.204 395.232C759.977 395.232 762.516 395.957 764.82 397.408C767.166 398.859 769.022 400.864 770.388 403.424C771.753 405.984 772.436 408.885 772.436 412.128C772.436 415.371 771.753 418.272 770.388 420.832C769.022 423.392 767.166 425.397 764.82 426.848C762.516 428.299 759.977 429.024 757.204 429.024ZM755.54 421.28C757.033 421.28 758.441 420.896 759.764 420.128C761.086 419.36 762.132 418.293 762.9 416.928C763.71 415.52 764.116 413.92 764.116 412.128C764.116 410.293 763.71 408.693 762.9 407.328C762.132 405.92 761.086 404.853 759.764 404.128C758.441 403.36 757.033 402.976 755.54 402.976C754.046 402.976 752.638 403.36 751.316 404.128C750.036 404.853 748.99 405.92 748.18 407.328C747.412 408.693 747.028 410.293 747.028 412.128C747.028 413.963 747.412 415.584 748.18 416.992C748.99 418.357 750.036 419.424 751.316 420.192C752.638 420.917 754.046 421.28 755.54 421.28ZM790.569 429.024C786.686 429.024 783.529 428.192 781.097 426.528C778.707 424.821 777.001 422.688 775.977 420.128L783.465 416.928C784.147 418.507 785.086 419.701 786.281 420.512C787.518 421.28 788.947 421.664 790.569 421.664C792.019 421.664 793.214 421.408 794.153 420.896C795.091 420.341 795.561 419.616 795.561 418.72C795.561 417.824 795.155 417.12 794.345 416.608C793.577 416.053 792.275 415.563 790.441 415.136L786.217 414.176C783.827 413.664 781.737 412.619 779.945 411.04C778.153 409.419 777.257 407.392 777.257 404.96C777.257 402.016 778.473 399.669 780.905 397.92C783.337 396.128 786.387 395.232 790.057 395.232C793.214 395.232 795.945 395.829 798.249 397.024C800.553 398.219 802.238 400.032 803.305 402.464L796.137 405.536C795.539 404.341 794.686 403.467 793.577 402.912C792.51 402.315 791.337 402.016 790.057 402.016C788.777 402.016 787.689 402.272 786.793 402.784C785.939 403.253 785.513 403.893 785.513 404.704C785.513 405.472 785.854 406.091 786.537 406.56C787.262 406.987 788.307 407.371 789.673 407.712L794.473 408.928C797.63 409.696 800.019 410.912 801.641 412.576C803.262 414.24 804.073 416.245 804.073 418.592C804.073 420.512 803.497 422.261 802.345 423.84C801.193 425.419 799.571 426.677 797.481 427.616C795.433 428.555 793.129 429.024 790.569 429.024Z" fill="black"/>
<path d="M385.337 146.824L316 186.863C299.688 196.285 294.086 217.157 303.509 233.491C312.931 249.825 333.782 255.405 350.116 245.983L469.92 176.775L385.337 146.814V146.824Z" fill="#FFBB01" stroke="#202124" stroke-width="2.87568" stroke-miterlimit="10"/>
<path d="M333.093 43.8994C327.096 43.8958 321.204 45.4734 316.012 48.473C310.819 51.4726 306.51 55.7883 303.517 60.9848C294.094 77.3187 299.675 98.1903 316.007 107.611L435.814 176.819C452.148 186.242 472.998 180.661 482.421 164.327C491.842 147.995 486.263 127.122 469.929 117.699L350.122 48.4909C344.95 45.4863 339.075 43.9023 333.093 43.8994Z" fill="#38A852" stroke="#202124" stroke-width="2.87568" stroke-miterlimit="10"/>
<path d="M213.899 43.8994C208.103 43.8994 202.245 45.3794 196.867 48.4928L77.0625 117.699L160.574 148.294L230.982 107.611C247.295 98.1903 252.897 77.3167 243.474 60.9829C237.163 50.0361 225.691 43.8994 213.899 43.8994Z" fill="#FF5145" stroke="#202124" stroke-width="2.87568" stroke-miterlimit="10"/>
<path d="M94.155 113.096C82.3724 113.096 70.9003 119.202 64.5796 130.181C55.1569 146.513 60.7377 167.387 77.0715 176.807L196.876 246.015C213.187 255.438 234.061 249.857 243.483 233.523C252.906 217.191 247.325 196.318 230.991 186.895L111.164 117.689C106.001 114.68 100.131 113.095 94.155 113.096Z" fill="#428EFF" stroke="#202124" stroke-width="2.87568" stroke-miterlimit="10"/>
<path d="M63.7842 458.632H76.6962C78.5202 458.632 80.2162 459.032 81.7842 459.832C83.3522 460.632 84.6002 461.736 85.5282 463.144C86.4562 464.552 86.9202 466.104 86.9202 467.8C86.9202 469.496 86.4882 470.968 85.6242 472.216C84.7602 473.464 83.6402 474.408 82.2642 475.048V475.336C84.0242 475.944 85.4322 476.952 86.4882 478.36C87.5442 479.768 88.0722 481.416 88.0722 483.304C88.0722 485.192 87.5762 486.872 86.5842 488.344C85.6242 489.816 84.3122 490.968 82.6482 491.8C81.0162 492.6 79.2242 493 77.2722 493H63.7842V458.632ZM76.4562 473.032C77.9922 473.032 79.2242 472.552 80.1522 471.592C81.1122 470.632 81.5922 469.528 81.5922 468.28C81.5922 467.032 81.1282 465.944 80.2002 465.016C79.3042 464.056 78.1202 463.576 76.6482 463.576H69.1602V473.032H76.4562ZM77.2722 488.008C78.9042 488.008 80.2002 487.512 81.1602 486.52C82.1522 485.496 82.6482 484.296 82.6482 482.92C82.6482 481.544 82.1362 480.36 81.1122 479.368C80.1202 478.344 78.7762 477.832 77.0802 477.832H69.1602V488.008H77.2722ZM93.6904 458.632H99.0664V493H93.6904V458.632ZM113.684 463.768H104.084V458.632H128.66V463.768H119.06V493H113.684V463.768ZM143.237 493.768C140.389 493.768 137.829 492.936 135.557 491.272C133.285 489.608 131.717 487.272 130.853 484.264L135.941 482.2C136.453 484.088 137.349 485.64 138.629 486.856C139.941 488.04 141.509 488.632 143.333 488.632C145.029 488.632 146.469 488.2 147.653 487.336C148.837 486.44 149.429 485.224 149.429 483.688C149.429 482.28 148.901 481.128 147.845 480.232C146.821 479.304 145.013 478.376 142.421 477.448L140.261 476.68C137.957 475.88 136.021 474.728 134.453 473.224C132.885 471.72 132.101 469.736 132.101 467.272C132.101 465.576 132.565 464.008 133.493 462.568C134.421 461.128 135.701 459.992 137.333 459.16C138.997 458.296 140.869 457.864 142.949 457.864C145.957 457.864 148.357 458.6 150.149 460.072C151.941 461.512 153.141 463.144 153.749 464.968L148.901 467.032C148.549 465.944 147.877 464.984 146.885 464.152C145.893 463.32 144.613 462.904 143.045 462.904C141.477 462.904 140.149 463.304 139.061 464.104C138.005 464.904 137.477 465.928 137.477 467.176C137.477 468.36 137.957 469.336 138.917 470.104C139.877 470.872 141.381 471.608 143.429 472.312L145.589 473.032C148.533 474.056 150.805 475.4 152.405 477.064C154.037 478.696 154.853 480.888 154.853 483.64C154.853 485.88 154.277 487.768 153.125 489.304C151.973 490.808 150.501 491.928 148.709 492.664C146.949 493.4 145.125 493.768 143.237 493.768ZM171.831 458.632H183.735C185.751 458.632 187.607 459.08 189.303 459.976C191.031 460.872 192.391 462.12 193.383 463.72C194.407 465.32 194.919 467.128 194.919 469.144C194.919 471.16 194.407 472.968 193.383 474.568C192.391 476.168 191.031 477.416 189.303 478.312C187.607 479.208 185.751 479.656 183.735 479.656H177.207V493H171.831V458.632ZM183.879 474.568C185.031 474.568 186.039 474.312 186.903 473.8C187.767 473.256 188.423 472.568 188.871 471.736C189.319 470.904 189.543 470.04 189.543 469.144C189.543 468.248 189.319 467.384 188.871 466.552C188.423 465.72 187.767 465.048 186.903 464.536C186.039 464.024 185.031 463.768 183.879 463.768H177.207V474.568H183.879ZM202.352 465.16C201.36 465.16 200.512 464.824 199.808 464.152C199.136 463.448 198.8 462.6 198.8 461.608C198.8 460.616 199.136 459.784 199.808 459.112C200.512 458.408 201.36 458.056 202.352 458.056C203.344 458.056 204.176 458.408 204.848 459.112C205.552 459.784 205.904 460.616 205.904 461.608C205.904 462.6 205.552 463.448 204.848 464.152C204.176 464.824 203.344 465.16 202.352 465.16ZM199.712 469.192H204.992V493H199.712V469.192ZM211.328 458.632H216.608V493H211.328V458.632ZM229.927 493.768C228.231 493.768 226.695 493.432 225.319 492.76C223.975 492.056 222.903 491.096 222.103 489.88C221.335 488.632 220.951 487.224 220.951 485.656C220.951 483.16 221.879 481.192 223.735 479.752C225.623 478.312 228.007 477.592 230.887 477.592C233.415 477.592 235.575 478.024 237.367 478.888V477.88C237.367 476.44 236.791 475.256 235.639 474.328C234.519 473.368 233.159 472.888 231.559 472.888C229.127 472.888 227.175 473.88 225.703 475.864L221.671 473.08C222.791 471.576 224.183 470.424 225.847 469.624C227.543 468.824 229.447 468.424 231.559 468.424C235.047 468.424 237.735 469.304 239.623 471.064C241.543 472.792 242.503 475.24 242.503 478.408V493H237.367V490.072H237.079C236.311 491.16 235.335 492.056 234.151 492.76C232.967 493.432 231.559 493.768 229.927 493.768ZM230.791 489.4C231.975 489.4 233.063 489.112 234.055 488.536C235.079 487.928 235.879 487.144 236.455 486.184C237.063 485.192 237.367 484.136 237.367 483.016C235.671 482.088 233.863 481.624 231.943 481.624C230.183 481.624 228.807 482.008 227.815 482.776C226.823 483.544 226.327 484.52 226.327 485.704C226.327 486.792 226.759 487.688 227.623 488.392C228.519 489.064 229.575 489.4 230.791 489.4ZM248.078 469.192H253.07V472.36H253.358C254.062 471.208 255.086 470.264 256.43 469.528C257.774 468.792 259.23 468.424 260.798 468.424C263.742 468.424 265.966 469.288 267.47 471.016C269.006 472.744 269.774 475.128 269.774 478.168V493H264.494V478.888C264.494 475.144 262.75 473.272 259.262 473.272C257.502 473.272 256.078 473.976 254.99 475.384C253.902 476.792 253.358 478.456 253.358 480.376V493H248.078V469.192ZM278.57 465.16C277.578 465.16 276.73 464.824 276.026 464.152C275.354 463.448 275.018 462.6 275.018 461.608C275.018 460.616 275.354 459.784 276.026 459.112C276.73 458.408 277.578 458.056 278.57 458.056C279.562 458.056 280.394 458.408 281.066 459.112C281.77 459.784 282.122 460.616 282.122 461.608C282.122 462.6 281.77 463.448 281.066 464.152C280.394 464.824 279.562 465.16 278.57 465.16ZM275.93 469.192H281.21V493H275.93V469.192ZM286.97 497.128L289.658 492.952C288.986 492.76 288.41 492.36 287.93 491.752C287.45 491.144 287.21 490.424 287.21 489.592C287.21 488.568 287.562 487.704 288.266 487C289.002 486.296 289.882 485.944 290.906 485.944C291.93 485.944 292.794 486.296 293.498 487C294.202 487.704 294.554 488.568 294.554 489.592C294.554 490.168 294.442 490.728 294.218 491.272C293.994 491.784 293.658 492.36 293.21 493L289.37 498.712L286.97 497.128ZM311.987 458.632H323.027C326.579 458.632 329.667 459.352 332.291 460.792C334.947 462.232 336.979 464.264 338.387 466.888C339.827 469.48 340.547 472.456 340.547 475.816C340.547 479.176 339.827 482.168 338.387 484.792C336.979 487.384 334.947 489.4 332.291 490.84C329.667 492.28 326.579 493 323.027 493H311.987V458.632ZM322.883 487.864C326.723 487.864 329.715 486.808 331.859 484.696C334.035 482.552 335.123 479.592 335.123 475.816C335.123 472.072 334.035 469.128 331.859 466.984C329.715 464.84 326.723 463.768 322.883 463.768H317.363V487.864H322.883ZM354.408 493.768C351.464 493.768 349.224 492.904 347.688 491.176C346.184 489.416 345.432 487 345.432 483.928V469.192H350.712V483.208C350.712 487.016 352.424 488.92 355.848 488.92C357.64 488.92 359.08 488.232 360.168 486.856C361.288 485.448 361.848 483.768 361.848 481.816V469.192H367.128V493H362.088V489.832H361.848C361.144 490.984 360.104 491.928 358.728 492.664C357.384 493.4 355.944 493.768 354.408 493.768ZM386.053 493.768C384.325 493.768 382.773 493.4 381.397 492.664C380.053 491.928 379.045 491 378.373 489.88H378.085V493H373.093V458.632H378.373V468.952L378.085 472.264H378.373C379.045 471.176 380.053 470.264 381.397 469.528C382.773 468.792 384.325 468.424 386.053 468.424C388.101 468.424 389.989 468.968 391.717 470.056C393.477 471.144 394.869 472.664 395.893 474.616C396.949 476.536 397.477 478.696 397.477 481.096C397.477 483.496 396.949 485.656 395.893 487.576C394.869 489.496 393.477 491.016 391.717 492.136C389.989 493.224 388.101 493.768 386.053 493.768ZM385.141 488.92C386.389 488.92 387.541 488.6 388.597 487.96C389.685 487.32 390.549 486.408 391.189 485.224C391.861 484.008 392.197 482.632 392.197 481.096C392.197 479.56 391.861 478.2 391.189 477.016C390.549 475.8 389.685 474.872 388.597 474.232C387.541 473.592 386.389 473.272 385.141 473.272C383.893 473.272 382.725 473.592 381.637 474.232C380.581 474.872 379.717 475.784 379.045 476.968C378.405 478.152 378.085 479.528 378.085 481.096C378.085 482.664 378.405 484.04 379.045 485.224C379.717 486.408 380.581 487.32 381.637 487.96C382.725 488.6 383.893 488.92 385.141 488.92ZM409.646 493.768C407.95 493.768 406.414 493.432 405.038 492.76C403.694 492.056 402.622 491.096 401.822 489.88C401.054 488.632 400.67 487.224 400.67 485.656C400.67 483.16 401.598 481.192 403.454 479.752C405.342 478.312 407.726 477.592 410.606 477.592C413.134 477.592 415.294 478.024 417.086 478.888V477.88C417.086 476.44 416.51 475.256 415.358 474.328C414.238 473.368 412.878 472.888 411.278 472.888C408.846 472.888 406.894 473.88 405.422 475.864L401.39 473.08C402.51 471.576 403.902 470.424 405.566 469.624C407.262 468.824 409.166 468.424 411.278 468.424C414.766 468.424 417.454 469.304 419.342 471.064C421.262 472.792 422.222 475.24 422.222 478.408V493H417.086V490.072H416.798C416.03 491.16 415.054 492.056 413.87 492.76C412.686 493.432 411.278 493.768 409.646 493.768ZM410.51 489.4C411.694 489.4 412.782 489.112 413.774 488.536C414.798 487.928 415.598 487.144 416.174 486.184C416.782 485.192 417.086 484.136 417.086 483.016C415.39 482.088 413.582 481.624 411.662 481.624C409.902 481.624 408.526 482.008 407.534 482.776C406.542 483.544 406.046 484.52 406.046 485.704C406.046 486.792 406.478 487.688 407.342 488.392C408.238 489.064 409.294 489.4 410.51 489.4ZM430.82 465.16C429.828 465.16 428.98 464.824 428.276 464.152C427.604 463.448 427.268 462.6 427.268 461.608C427.268 460.616 427.604 459.784 428.276 459.112C428.98 458.408 429.828 458.056 430.82 458.056C431.812 458.056 432.644 458.408 433.316 459.112C434.02 459.784 434.372 460.616 434.372 461.608C434.372 462.6 434.02 463.448 433.316 464.152C432.644 464.824 431.812 465.16 430.82 465.16ZM428.18 469.192H433.46V493H428.18V469.192ZM466.961 493.768C463.633 493.768 460.593 492.984 457.841 491.416C455.121 489.848 452.977 487.704 451.409 484.984C449.841 482.232 449.057 479.176 449.057 475.816C449.057 472.456 449.841 469.416 451.409 466.696C452.977 463.944 455.121 461.784 457.841 460.216C460.593 458.648 463.633 457.864 466.961 457.864C472.113 457.864 476.353 459.736 479.681 463.48L475.889 467.176C474.705 465.768 473.377 464.728 471.905 464.056C470.465 463.352 468.817 463 466.961 463C464.657 463 462.545 463.528 460.625 464.584C458.737 465.64 457.233 467.144 456.113 469.096C455.025 471.016 454.481 473.256 454.481 475.816C454.481 478.376 455.025 480.632 456.113 482.584C457.233 484.504 458.737 485.992 460.625 487.048C462.545 488.104 464.657 488.632 466.961 488.632C470.801 488.632 474.065 487.032 476.753 483.832L480.641 487.576C479.009 489.528 477.009 491.048 474.641 492.136C472.305 493.224 469.745 493.768 466.961 493.768ZM492.24 493.768C490.544 493.768 489.008 493.432 487.632 492.76C486.288 492.056 485.216 491.096 484.416 489.88C483.648 488.632 483.264 487.224 483.264 485.656C483.264 483.16 484.192 481.192 486.048 479.752C487.936 478.312 490.32 477.592 493.2 477.592C495.728 477.592 497.888 478.024 499.68 478.888V477.88C499.68 476.44 499.104 475.256 497.952 474.328C496.832 473.368 495.472 472.888 493.872 472.888C491.44 472.888 489.488 473.88 488.016 475.864L483.984 473.08C485.104 471.576 486.496 470.424 488.16 469.624C489.856 468.824 491.76 468.424 493.872 468.424C497.36 468.424 500.048 469.304 501.936 471.064C503.856 472.792 504.816 475.24 504.816 478.408V493H499.68V490.072H499.392C498.624 491.16 497.648 492.056 496.464 492.76C495.28 493.432 493.872 493.768 492.24 493.768ZM493.104 489.4C494.288 489.4 495.376 489.112 496.368 488.536C497.392 487.928 498.192 487.144 498.768 486.184C499.376 485.192 499.68 484.136 499.68 483.016C497.984 482.088 496.176 481.624 494.256 481.624C492.496 481.624 491.12 482.008 490.128 482.776C489.136 483.544 488.64 484.52 488.64 485.704C488.64 486.792 489.072 487.688 489.936 488.392C490.832 489.064 491.888 489.4 493.104 489.4ZM510.39 469.192H515.382V472.36H515.67C516.374 471.208 517.398 470.264 518.742 469.528C520.086 468.792 521.494 468.424 522.966 468.424C524.694 468.424 526.198 468.824 527.478 469.624C528.758 470.424 529.702 471.496 530.31 472.84C531.142 471.496 532.246 470.424 533.622 469.624C535.03 468.824 536.63 468.424 538.422 468.424C541.206 468.424 543.318 469.288 544.758 471.016C546.198 472.712 546.918 475.032 546.918 477.976V493H541.638V478.84C541.638 476.856 541.238 475.432 540.438 474.568C539.67 473.704 538.518 473.272 536.982 473.272C535.286 473.272 533.91 473.976 532.854 475.384C531.83 476.76 531.318 478.44 531.318 480.424V493H526.038V478.84C526.038 476.856 525.638 475.432 524.838 474.568C524.038 473.704 522.838 473.272 521.238 473.272C519.574 473.272 518.23 473.976 517.206 475.384C516.182 476.76 515.67 478.44 515.67 480.424V493H510.39V469.192ZM552.479 469.192H557.471V472.264H557.759C558.431 471.176 559.439 470.264 560.783 469.528C562.159 468.792 563.711 468.424 565.439 468.424C567.487 468.424 569.375 468.968 571.103 470.056C572.863 471.144 574.255 472.664 575.279 474.616C576.335 476.536 576.863 478.696 576.863 481.096C576.863 483.496 576.335 485.656 575.279 487.576C574.255 489.496 572.863 491.016 571.103 492.136C569.375 493.224 567.487 493.768 565.439 493.768C563.711 493.768 562.159 493.4 560.783 492.664C559.439 491.928 558.431 491 557.759 489.88H557.471L557.759 493.24V503.368H552.479V469.192ZM564.527 488.92C565.775 488.92 566.927 488.6 567.983 487.96C569.071 487.32 569.935 486.408 570.575 485.224C571.247 484.008 571.583 482.632 571.583 481.096C571.583 479.56 571.247 478.2 570.575 477.016C569.935 475.8 569.071 474.872 567.983 474.232C566.927 473.592 565.775 473.272 564.527 473.272C563.279 473.272 562.111 473.592 561.023 474.232C559.967 474.872 559.103 475.784 558.431 476.968C557.791 478.152 557.471 479.528 557.471 481.096C557.471 482.664 557.791 484.04 558.431 485.224C559.103 486.408 559.967 487.32 561.023 487.96C562.111 488.6 563.279 488.92 564.527 488.92ZM590.002 493.768C587.058 493.768 584.818 492.904 583.282 491.176C581.778 489.416 581.026 487 581.026 483.928V469.192H586.306V483.208C586.306 487.016 588.018 488.92 591.442 488.92C593.234 488.92 594.674 488.232 595.762 486.856C596.882 485.448 597.442 483.768 597.442 481.816V469.192H602.722V493H597.682V489.832H597.442C596.738 490.984 595.698 491.928 594.322 492.664C592.978 493.4 591.538 493.768 590.002 493.768ZM617.237 493.768C614.517 493.768 612.261 493.144 610.469 491.896C608.709 490.616 607.461 489.016 606.725 487.096L611.429 485.08C611.973 486.392 612.757 487.384 613.781 488.056C614.837 488.728 615.989 489.064 617.237 489.064C618.549 489.064 619.621 488.824 620.453 488.344C621.285 487.832 621.701 487.176 621.701 486.376C621.701 485.608 621.365 484.984 620.693 484.504C620.021 483.992 618.917 483.544 617.381 483.16L614.117 482.392C612.325 481.976 610.773 481.208 609.461 480.088C608.181 478.936 607.541 477.448 607.541 475.624C607.541 473.416 608.453 471.672 610.277 470.392C612.101 469.08 614.341 468.424 616.997 468.424C619.205 468.424 621.157 468.888 622.853 469.816C624.581 470.744 625.829 472.088 626.597 473.848L621.941 475.816C621.493 474.824 620.805 474.088 619.877 473.608C618.949 473.128 617.941 472.888 616.853 472.888C615.797 472.888 614.869 473.128 614.069 473.608C613.269 474.056 612.869 474.664 612.869 475.432C612.869 476.104 613.141 476.648 613.685 477.064C614.261 477.48 615.157 477.832 616.373 478.12L619.925 478.984C622.325 479.592 624.117 480.52 625.301 481.768C626.485 482.984 627.077 484.456 627.077 486.184C627.077 487.592 626.645 488.872 625.781 490.024C624.949 491.176 623.781 492.088 622.277 492.76C620.805 493.432 619.125 493.768 617.237 493.768Z" fill="#383838"/>
</svg>
