<svg width="109" height="54" viewBox="0 0 109 54" fill="none" xmlns="http://www.w3.org/2000/svg">
<path d="M82.5245 26.7915L65.1498 36.8247C61.062 39.1859 59.6583 44.416 62.0195 48.5091C64.3807 52.6021 69.6055 54.0006 73.6986 51.6394L103.72 34.2968L82.5245 26.7891V26.7915Z" fill="#FFBB01" stroke="#202124" stroke-width="0.720605" stroke-miterlimit="10"/>
<path d="M69.433 1C67.9304 0.999106 66.454 1.39442 65.1529 2.14608C63.8517 2.89774 62.7718 3.97918 62.0219 5.28136C59.6607 9.3744 61.0591 14.6046 65.1517 16.9653L95.1735 34.3078C99.2666 36.669 104.491 35.2706 106.853 31.1775C109.213 27.085 107.815 21.8543 103.722 19.4931L73.7005 2.15057C72.4043 1.39766 70.9321 1.00073 69.433 1Z" fill="#38A852" stroke="#202124" stroke-width="0.720605" stroke-miterlimit="10"/>
<path d="M39.5644 1C38.1122 1 36.6441 1.37087 35.2965 2.15105L5.27515 19.4931L26.202 27.1599L43.8453 16.9653C47.9331 14.6046 49.3368 9.37392 46.9756 5.28088C45.3941 2.53777 42.5194 1 39.5644 1Z" fill="#FF5145" stroke="#202124" stroke-width="0.720605" stroke-miterlimit="10"/>
<path d="M9.55876 18.3397C6.6062 18.3397 3.73147 19.8698 2.14758 22.6211C-0.213608 26.7136 1.18485 31.9443 5.27789 34.305L35.2993 51.6475C39.3866 54.0087 44.6172 52.6103 46.9784 48.5172C49.3396 44.4247 47.9411 39.194 43.8481 36.8329L13.8209 19.4908C12.5271 18.7367 11.0563 18.3395 9.55876 18.3397Z" fill="#428EFF" stroke="#202124" stroke-width="0.720605" stroke-miterlimit="10"/>
</svg>
